<svg version="1.1" baseProfile="full" width="48" height="48" xmlns="http://www.w3.org/2000/svg">
    <polygon points="8,0 30,0 40,10 40,48 8,48" style="stroke:rgb(109,109,109);stroke-width:1" stroke-linejoin="round" fill="rgb(150,150,150)" />
    <polygon points="30,0 30,10 40,10" style="stroke:rgba(255,255,255,0.5);stroke-width:1" stroke-linejoin="round" fill="rgba(255,255,255,0.5)" />
    <text x="24" y="32" text-anchor="middle" font-family="latolight, Arial" style="font-size:14px;stroke:rgb(255,255,255);fill:rgb(255,255,255);">?</text>
    <polygon points="24,39.6 25.644630021972652,39.49220525331001 26.691718069066216,37.045628593406306 27.979907696596932,36.60834713811738 30.3,37.911920087683924 31.67039400550988,36.99625208766956 31.353910524340094,34.353910524340094 32.250874739028845,33.3311188616907 34.911920087683924,33.3 35.64088210964221,31.821811247800134 34.045628593406306,29.691718069066216 34.31102655828763,28.35747239908854 36.6,27 36.49220525331001,25.355369978027348 34.045628593406306,24.308281930933784 33.60834713811738,23.020092303403068 34.911920087683924,20.700000000000003 33.99625208766956,19.32960599449012 31.353910524340098,19.646089475659906 30.331118861690697,18.749125260971155 30.3,16.088079912316072 28.821811247800134,15.359117890357787 26.69171806906622,16.95437140659369 25.357472399088543,16.68897344171237 24.000000000000004,14.399999999999999 22.355369978027348,14.507794746689989 21.308281930933784,16.954371406593687 20.020092303403068,17.391652861882616 17.700000000000003,16.08807991231607 16.32960599449012,17.003747912330436 16.64608947565991,19.646089475659902 15.749125260971157,20.668881138309303 13.088079912316076,20.699999999999996 12.359117890357785,22.178188752199873 13.954371406593689,24.308281930933784 13.68897344171237,25.642527600911464 11.399999999999999,26.999999999999996 11.507794746689987,28.644630021972645 13.954371406593687,29.691718069066212 14.391652861882616,30.97990769659693 13.088079912316074,33.3 14.003747912330429,34.67039400550987 16.646089475659906,34.353910524340094 17.668881138309303,35.250874739028845 17.699999999999996,37.911920087683924 19.178188752199873,38.64088210964221 21.308281930933777,37.045628593406306 22.642527600911464,37.31102655828763" style="stroke:rgba(255, 255, 255, 0.9);stroke-width:1" stroke-linejoin="round" fill="transparent" />
    <circle cx="24" cy="27" r="9" stroke="rgba(255, 255, 255, 0.9)" stroke-width="1" fill="transparent" />
</svg>
