<svg version="1.1" baseProfile="full" width="48" height="48" xmlns="http://www.w3.org/2000/svg">
    <polygon points="8,0 30,0 40,10 40,48 8,48" style="stroke:rgb(189,195,199);stroke-width:1" stroke-linejoin="round" fill="rgb(255,255,255)" />
    <polygon points="30,0 30,10 40,10" style="stroke:rgba(0,0,0,0.1);stroke-width:1" stroke-linejoin="round" fill="rgba(0,0,0,0.025)" />
    <g transform="scale(0.1,0.1) translate(110, 140)">
        <path d="M126.916.072c-64.832 0-60.784 28.115-60.784 28.115l.072 29.128h61.868v8.745H41.631S.145 61.355.145 126.77c0 65.417 36.21 63.097 36.21 63.097h21.61v-30.356s-1.165-36.21 35.632-36.21h61.362s34.475.557 34.475-33.319V33.97S194.67.072 126.916.072zM92.802 19.66a11.12 11.12 0 0 1 11.13 11.13 11.12 11.12 0 0 1-11.13 11.13 11.12 11.12 0 0 1-11.13-11.13 11.12 11.12 0 0 1 11.13-11.13z" fill="rgb(56,126,184)"/>
        <path d="M128.757 254.126c64.832 0 60.784-28.115 60.784-28.115l-.072-29.127H127.6v-8.745h86.441s41.486 4.705 41.486-60.712c0-65.416-36.21-63.096-36.21-63.096h-21.61v30.355s1.165 36.21-35.632 36.21h-61.362s-34.475-.557-34.475 33.32v56.013s-5.235 33.897 62.518 33.897zm34.114-19.586a11.12 11.12 0 0 1-11.13-11.13 11.12 11.12 0 0 1 11.13-11.131 11.12 11.12 0 0 1 11.13 11.13 11.12 11.12 0 0 1-11.13 11.13z" fill="rgb(255,224,82)"/>
    </g>
</svg>
