<svg xmlns="http://www.w3.org/2000/svg" width="24" height="24" viewBox="0 0 24 24" baseProfile="full" version="1.1">
    <g transform="scale(0.018,-0.018) translate(150, -1100)">
        <path fill="rgb(255,255,255)" stroke="rgb(255,255,255)" d="M450 318.667l210 212 46-46-256-256-136 136 44 44zM512 84.667q124 0 211 88t87 212-87 211-211 87-211-87-87-211 87-212 211-88zM512 768.667q160 0 272-113t112-271-112-271-272-113-272 113-112 271 112 271 272 113zM336 794.667l-196-164-54 64 196 164zM938 694.667l-54-66-196 166 54 64z" />
    </g>
</svg>