<svg version="1.1" baseProfile="full" width="20" height="20" viewBox="0 0 1000 1000" xmlns="http://www.w3.org/2000/svg">
    <path fill="rgb(255,255,255)" stroke="rgb(255,255,255)" d="M810 810.667h128v-42l-298-300-86 86zM512 404.667q22 0 22 22t-22 22-22-22 22-22zM256 84.667q34 0 60 25t26 61-26 61-60 25-60-25-26-61 26-61 60-25zM256 596.667q34 0 60 25t26 61-26 61-60 25-60-25-26-61 26-61 60-25zM412 612.667l526-528v-42h-128l-298 298-100-100q14-30 14-70 0-70-50-120t-120-50-120 50-50 120 50 120 120 50q40 0 70-14l100 100-100 100q-30-14-70-14-70 0-120 50t-50 120 50 120 120 50 120-50 50-120q0-40-14-70z"/>
</svg>