<svg version="1.1" baseProfile="full" width="20" height="20" xmlns="http://www.w3.org/2000/svg">
    <line x1="2" y1="11" x2="3" y2="13.296100594190538" style="stroke:rgb(0,0,0);stroke-width:3" stroke-linecap="round" />
    <line x1="3" y1="13.267399336763157" x2="4" y2="15.189607678530294" style="stroke:rgb(0,0,0);stroke-width:3" stroke-linecap="round" />
    <line x1="4" y1="15.136574669941304" x2="5" y2="16.404695265191027" style="stroke:rgb(0,0,0);stroke-width:3" stroke-linecap="round" />
    <line x1="5" y1="16.33540430025268" x2="6" y2="16.775" style="stroke:rgb(0,0,0);stroke-width:3" stroke-linecap="round" />
    <line x1="6" y1="16.7" x2="7" y2="16.266113335314333" style="stroke:rgb(0,0,0);stroke-width:3" stroke-linecap="round" />
    <line x1="7" y1="16.196822370375987" x2="8" y2="14.97747564417433" style="stroke:rgb(0,0,0);stroke-width:3" stroke-linecap="round" />
    <line x1="8" y1="14.92444263558534" x2="9" y2="13.123893049626249" style="stroke:rgb(0,0,0);stroke-width:3" stroke-linecap="round" />
    <line x1="9" y1="13.095191792198868" x2="10" y2="11" style="stroke:rgb(0,0,0);stroke-width:3" stroke-linecap="round" />
    <line x1="10" y1="11" x2="11" y2="8.933509465228516" style="stroke:rgb(0,0,0);stroke-width:3" stroke-linecap="round" />
    <line x1="11" y1="8.962210722655897" x2="12" y2="7.234656390181635" style="stroke:rgb(0,0,0);stroke-width:3" stroke-linecap="round" />
    <line x1="12" y1="7.287689398770626" x2="13" y2="6.1496324543157455" style="stroke:rgb(0,0,0);stroke-width:3" stroke-linecap="round" />
    <line x1="13" y1="6.218923419254092" x2="14" y2="5.824999999999999" style="stroke:rgb(0,0,0);stroke-width:3" stroke-linecap="round" />
    <line x1="14" y1="5.9" x2="15" y2="6.288214384192438" style="stroke:rgb(0,0,0);stroke-width:3" stroke-linecap="round" />
    <line x1="15" y1="6.3575053491307845" x2="16" y2="7.446788424537598" style="stroke:rgb(0,0,0);stroke-width:3" stroke-linecap="round" />
    <line x1="16" y1="7.4998214331265896" x2="17" y2="9.105717009792803" style="stroke:rgb(0,0,0);stroke-width:3" stroke-linecap="round" />
    <line x1="17" y1="9.134418267220184" x2="18" y2="10.999999999999998" style="stroke:rgb(0,0,0);stroke-width:3" stroke-linecap="round" />
    <line x1="2" y1="2" x2="18" y2="6" style="stroke:rgb(0,0,0);stroke-width:3" stroke-linecap="round"/>
    <line x1="2" y1="18" x2="18" y2="14" style="stroke:rgb(0,0,0);stroke-width:3" stroke-linecap="round"/>
    <line x1="2" y1="11" x2="3" y2="13.296100594190538" style="stroke:rgb(255,255,255);stroke-width:2" stroke-linecap="round" />
    <line x1="3" y1="13.267399336763157" x2="4" y2="15.189607678530294" style="stroke:rgb(255,255,255);stroke-width:2" stroke-linecap="round" />
    <line x1="4" y1="15.136574669941304" x2="5" y2="16.404695265191027" style="stroke:rgb(255,255,255);stroke-width:2" stroke-linecap="round" />
    <line x1="5" y1="16.33540430025268" x2="6" y2="16.775" style="stroke:rgb(255,255,255);stroke-width:2" stroke-linecap="round" />
    <line x1="6" y1="16.7" x2="7" y2="16.266113335314333" style="stroke:rgb(255,255,255);stroke-width:2" stroke-linecap="round" />
    <line x1="7" y1="16.196822370375987" x2="8" y2="14.97747564417433" style="stroke:rgb(255,255,255);stroke-width:2" stroke-linecap="round" />
    <line x1="8" y1="14.92444263558534" x2="9" y2="13.123893049626249" style="stroke:rgb(255,255,255);stroke-width:2" stroke-linecap="round" />
    <line x1="9" y1="13.095191792198868" x2="10" y2="11" style="stroke:rgb(255,255,255);stroke-width:2" stroke-linecap="round" />
    <line x1="10" y1="11" x2="11" y2="8.933509465228516" style="stroke:rgb(255,255,255);stroke-width:2" stroke-linecap="round" />
    <line x1="11" y1="8.962210722655897" x2="12" y2="7.234656390181635" style="stroke:rgb(255,255,255);stroke-width:2" stroke-linecap="round" />
    <line x1="12" y1="7.287689398770626" x2="13" y2="6.1496324543157455" style="stroke:rgb(255,255,255);stroke-width:2" stroke-linecap="round" />
    <line x1="13" y1="6.218923419254092" x2="14" y2="5.824999999999999" style="stroke:rgb(255,255,255);stroke-width:2" stroke-linecap="round" />
    <line x1="14" y1="5.9" x2="15" y2="6.288214384192438" style="stroke:rgb(255,255,255);stroke-width:2" stroke-linecap="round" />
    <line x1="15" y1="6.3575053491307845" x2="16" y2="7.446788424537598" style="stroke:rgb(255,255,255);stroke-width:2" stroke-linecap="round" />
    <line x1="16" y1="7.4998214331265896" x2="17" y2="9.105717009792803" style="stroke:rgb(255,255,255);stroke-width:2" stroke-linecap="round" />
    <line x1="17" y1="9.134418267220184" x2="18" y2="10.999999999999998" style="stroke:rgb(255,255,255);stroke-width:2" stroke-linecap="round" />
    <line x1="2" y1="2" x2="18" y2="6" style="stroke:rgb(255,255,255);stroke-width:2" stroke-linecap="round"/>
    <line x1="2" y1="18" x2="18" y2="14" style="stroke:rgb(255,255,255);stroke-width:2" stroke-linecap="round"/>
</svg>