<svg version="1.1" baseProfile="full" width="20" height="20" xmlns="http://www.w3.org/2000/svg">
    <line x1="2" y1="9.5" x2="3" y2="11.767399336763157" style="stroke:rgb(0,0,0);stroke-width:3" stroke-linecap="round" />
    <line x1="3" y1="11.738698079335775" x2="4" y2="13.636574669941304" style="stroke:rgb(0,0,0);stroke-width:3" stroke-linecap="round" />
    <line x1="4" y1="13.583541661352312" x2="5" y2="14.83540430025268" style="stroke:rgb(0,0,0);stroke-width:3" stroke-linecap="round" />
    <line x1="5" y1="14.766113335314333" x2="6" y2="15.2" style="stroke:rgb(0,0,0);stroke-width:3" stroke-linecap="round" />
    <line x1="6" y1="15.125" x2="7" y2="14.696822370375987" style="stroke:rgb(0,0,0);stroke-width:3" stroke-linecap="round" />
    <line x1="7" y1="14.62753140543764" x2="8" y2="13.42444263558534" style="stroke:rgb(0,0,0);stroke-width:3" stroke-linecap="round" />
    <line x1="8" y1="13.371409626996348" x2="9" y2="11.595191792198868" style="stroke:rgb(0,0,0);stroke-width:3" stroke-linecap="round" />
    <line x1="9" y1="11.566490534771486" x2="10" y2="9.5" style="stroke:rgb(0,0,0);stroke-width:3" stroke-linecap="round" />
    <line x1="10" y1="9.5" x2="11" y2="7.462210722655897" style="stroke:rgb(0,0,0);stroke-width:3" stroke-linecap="round" />
    <line x1="11" y1="7.490911980083279" x2="12" y2="5.787689398770626" style="stroke:rgb(0,0,0);stroke-width:3" stroke-linecap="round" />
    <line x1="12" y1="5.840722407359617" x2="13" y2="4.718923419254092" style="stroke:rgb(0,0,0);stroke-width:3" stroke-linecap="round" />
    <line x1="13" y1="4.788214384192438" x2="14" y2="4.3999999999999995" style="stroke:rgb(0,0,0);stroke-width:3" stroke-linecap="round" />
    <line x1="14" y1="4.475" x2="15" y2="4.8575053491307845" style="stroke:rgb(0,0,0);stroke-width:3" stroke-linecap="round" />
    <line x1="15" y1="4.92679631406913" x2="16" y2="5.9998214331265896" style="stroke:rgb(0,0,0);stroke-width:3" stroke-linecap="round" />
    <line x1="16" y1="6.0528544417155805" x2="17" y2="7.634418267220185" style="stroke:rgb(0,0,0);stroke-width:3" stroke-linecap="round" />
    <line x1="17" y1="7.663119524647566" x2="18" y2="9.5" style="stroke:rgb(0,0,0);stroke-width:3" stroke-linecap="round" />
    <line x1="2" y1="6" x2="18" y2="2" style="stroke:rgb(0,0,0);stroke-width:3" stroke-linecap="round"/>
    <line x1="2" y1="14" x2="18" y2="18" style="stroke:rgb(0,0,0);stroke-width:3" stroke-linecap="round"/>
    <line x1="2" y1="9.5" x2="3" y2="11.767399336763157" style="stroke:rgb(255,255,255);stroke-width:2" stroke-linecap="round" />
    <line x1="3" y1="11.738698079335775" x2="4" y2="13.636574669941304" style="stroke:rgb(255,255,255);stroke-width:2" stroke-linecap="round" />
    <line x1="4" y1="13.583541661352312" x2="5" y2="14.83540430025268" style="stroke:rgb(255,255,255);stroke-width:2" stroke-linecap="round" />
    <line x1="5" y1="14.766113335314333" x2="6" y2="15.2" style="stroke:rgb(255,255,255);stroke-width:2" stroke-linecap="round" />
    <line x1="6" y1="15.125" x2="7" y2="14.696822370375987" style="stroke:rgb(255,255,255);stroke-width:2" stroke-linecap="round" />
    <line x1="7" y1="14.62753140543764" x2="8" y2="13.42444263558534" style="stroke:rgb(255,255,255);stroke-width:2" stroke-linecap="round" />
    <line x1="8" y1="13.371409626996348" x2="9" y2="11.595191792198868" style="stroke:rgb(255,255,255);stroke-width:2" stroke-linecap="round" />
    <line x1="9" y1="11.566490534771486" x2="10" y2="9.5" style="stroke:rgb(255,255,255);stroke-width:2" stroke-linecap="round" />
    <line x1="10" y1="9.5" x2="11" y2="7.462210722655897" style="stroke:rgb(255,255,255);stroke-width:2" stroke-linecap="round" />
    <line x1="11" y1="7.490911980083279" x2="12" y2="5.787689398770626" style="stroke:rgb(255,255,255);stroke-width:2" stroke-linecap="round" />
    <line x1="12" y1="5.840722407359617" x2="13" y2="4.718923419254092" style="stroke:rgb(255,255,255);stroke-width:2" stroke-linecap="round" />
    <line x1="13" y1="4.788214384192438" x2="14" y2="4.3999999999999995" style="stroke:rgb(255,255,255);stroke-width:2" stroke-linecap="round" />
    <line x1="14" y1="4.475" x2="15" y2="4.8575053491307845" style="stroke:rgb(255,255,255);stroke-width:2" stroke-linecap="round" />
    <line x1="15" y1="4.92679631406913" x2="16" y2="5.9998214331265896" style="stroke:rgb(255,255,255);stroke-width:2" stroke-linecap="round" />
    <line x1="16" y1="6.0528544417155805" x2="17" y2="7.634418267220185" style="stroke:rgb(255,255,255);stroke-width:2" stroke-linecap="round" />
    <line x1="17" y1="7.663119524647566" x2="18" y2="9.5" style="stroke:rgb(255,255,255);stroke-width:2" stroke-linecap="round" />
    <line x1="2" y1="6" x2="18" y2="2" style="stroke:rgb(255,255,255);stroke-width:2" stroke-linecap="round"/>
    <line x1="2" y1="14" x2="18" y2="18" style="stroke:rgb(255,255,255);stroke-width:2" stroke-linecap="round"/>
</svg>