<svg xmlns="http://www.w3.org/2000/svg" width="24" height="24" viewBox="0 0 24 24" baseProfile="full" version="1.1">
    <g transform="scale(0.018,-0.018) translate(150, -1100)">
        <path fill="rgb(0,0,0)" stroke="rgb(0,0,0)" d="M854 596.667v172h-172v-172h172zM854 340.667v172h-172v-172h172zM854 84.667v172h-172v-172h172zM598 596.667v172h-172v-172h172zM598 340.667v172h-172v-172h172zM598 84.667v172h-172v-172h172zM342 596.667v172h-172v-172h172zM342 340.667v172h-172v-172h172zM342 84.667v172h-172v-172h172zM854 852.667q34 0 59-25t25-59v-684q0-34-25-59t-59-25h-684q-34 0-59 25t-25 59v684q0 34 25 59t59 25h684z"/>
    </g>
</svg>