<svg version="1.1" baseProfile="full" width="16" height="16" viewBox="0 -75 1000 1000" xmlns="http://www.w3.org/2000/svg">
    <path fill="rgba(0,0,0,0.5)" stroke="rgba(0,0,0,0.5)" d="M854 596.667v172h-172v-172h172zM854 340.667v172h-172v-172h172zM854 84.667v172h-172v-172h172zM598 596.667v172h-172v-172h172zM598 340.667v172h-172v-172h172zM598 84.667v172h-172v-172h172zM342 596.667v172h-172v-172h172zM342 340.667v172h-172v-172h172zM342 84.667v172h-172v-172h172zM854 852.667q34 0 59-25t25-59v-684q0-34-25-59t-59-25h-684q-34 0-59 25t-25 59v684q0 34 25 59t59 25h684z" />
</svg>

