<svg xmlns="http://www.w3.org/2000/svg" width="24" height="24" viewBox="0 0 24 24" baseProfile="full" version="1.1">
    <g transform="scale(0.018,-0.018) translate(150, -1100)">
        <path fill="rgb(255,255,255)" stroke="rgb(255,255,255)" d="M512 84.667q124 0 211 88t87 212-87 211-211 87-211-87-87-211 87-212 211-88zM812 622.667q34-44 59-113t25-125q0-158-112-271t-272-113-272 113-112 271 112 271 272 113q54 0 125-26t115-60l60 62q32-26 60-60zM470 340.667v256h84v-256h-84zM640 896.667v-86h-256v86h256z" />
    </g>
</svg>