<svg version="1.1" baseProfile="full" width="20" height="20" xmlns="http://www.w3.org/2000/svg">
    <line x1="2" y1="11" x2="3" y2="13.296100594190538" style="stroke:rgb(0,0,0);stroke-width:3" stroke-linecap="round" />
    <line x1="3" y1="13.296100594190538" x2="4" y2="15.242640687119284" style="stroke:rgb(0,0,0);stroke-width:3" stroke-linecap="round" />
    <line x1="4" y1="15.242640687119284" x2="5" y2="16.54327719506772" style="stroke:rgb(0,0,0);stroke-width:3" stroke-linecap="round" />
    <line x1="5" y1="16.54327719506772" x2="6" y2="17" style="stroke:rgb(0,0,0);stroke-width:3" stroke-linecap="round" />
    <line x1="6" y1="17" x2="7" y2="16.54327719506772" style="stroke:rgb(0,0,0);stroke-width:3" stroke-linecap="round" />
    <line x1="7" y1="16.54327719506772" x2="8" y2="15.242640687119286" style="stroke:rgb(0,0,0);stroke-width:3" stroke-linecap="round" />
    <line x1="8" y1="15.242640687119286" x2="9" y2="13.29610059419054" style="stroke:rgb(0,0,0);stroke-width:3" stroke-linecap="round" />
    <line x1="9" y1="13.29610059419054" x2="10" y2="11" style="stroke:rgb(0,0,0);stroke-width:3" stroke-linecap="round" />
    <line x1="10" y1="11" x2="11" y2="8.703899405809462" style="stroke:rgb(0,0,0);stroke-width:3" stroke-linecap="round" />
    <line x1="11" y1="8.703899405809462" x2="12" y2="6.757359312880715" style="stroke:rgb(0,0,0);stroke-width:3" stroke-linecap="round" />
    <line x1="12" y1="6.757359312880715" x2="13" y2="5.456722804932281" style="stroke:rgb(0,0,0);stroke-width:3" stroke-linecap="round" />
    <line x1="13" y1="5.456722804932281" x2="14" y2="5" style="stroke:rgb(0,0,0);stroke-width:3" stroke-linecap="round" />
    <line x1="14" y1="5" x2="15" y2="5.45672280493228" style="stroke:rgb(0,0,0);stroke-width:3" stroke-linecap="round" />
    <line x1="15" y1="5.45672280493228" x2="16" y2="6.757359312880714" style="stroke:rgb(0,0,0);stroke-width:3" stroke-linecap="round" />
    <line x1="16" y1="6.757359312880714" x2="17" y2="8.703899405809459" style="stroke:rgb(0,0,0);stroke-width:3" stroke-linecap="round" />
    <line x1="17" y1="8.703899405809459" x2="18" y2="10.999999999999998" style="stroke:rgb(0,0,0);stroke-width:3" stroke-linecap="round" />
    <line x1="2" y1="11" x2="3" y2="13.296100594190538" style="stroke:rgb(255,255,255);stroke-width:2" stroke-linecap="round" />
    <line x1="3" y1="13.296100594190538" x2="4" y2="15.242640687119284" style="stroke:rgb(255,255,255);stroke-width:2" stroke-linecap="round" />
    <line x1="4" y1="15.242640687119284" x2="5" y2="16.54327719506772" style="stroke:rgb(255,255,255);stroke-width:2" stroke-linecap="round" />
    <line x1="5" y1="16.54327719506772" x2="6" y2="17" style="stroke:rgb(255,255,255);stroke-width:2" stroke-linecap="round" />
    <line x1="6" y1="17" x2="7" y2="16.54327719506772" style="stroke:rgb(255,255,255);stroke-width:2" stroke-linecap="round" />
    <line x1="7" y1="16.54327719506772" x2="8" y2="15.242640687119286" style="stroke:rgb(255,255,255);stroke-width:2" stroke-linecap="round" />
    <line x1="8" y1="15.242640687119286" x2="9" y2="13.29610059419054" style="stroke:rgb(255,255,255);stroke-width:2" stroke-linecap="round" />
    <line x1="9" y1="13.29610059419054" x2="10" y2="11" style="stroke:rgb(255,255,255);stroke-width:2" stroke-linecap="round" />
    <line x1="10" y1="11" x2="11" y2="8.703899405809462" style="stroke:rgb(255,255,255);stroke-width:2" stroke-linecap="round" />
    <line x1="11" y1="8.703899405809462" x2="12" y2="6.757359312880715" style="stroke:rgb(255,255,255);stroke-width:2" stroke-linecap="round" />
    <line x1="12" y1="6.757359312880715" x2="13" y2="5.456722804932281" style="stroke:rgb(255,255,255);stroke-width:2" stroke-linecap="round" />
    <line x1="13" y1="5.456722804932281" x2="14" y2="5" style="stroke:rgb(255,255,255);stroke-width:2" stroke-linecap="round" />
    <line x1="14" y1="5" x2="15" y2="5.45672280493228" style="stroke:rgb(255,255,255);stroke-width:2" stroke-linecap="round" />
    <line x1="15" y1="5.45672280493228" x2="16" y2="6.757359312880714" style="stroke:rgb(255,255,255);stroke-width:2" stroke-linecap="round" />
    <line x1="16" y1="6.757359312880714" x2="17" y2="8.703899405809459" style="stroke:rgb(255,255,255);stroke-width:2" stroke-linecap="round" />
    <line x1="17" y1="8.703899405809459" x2="18" y2="10.999999999999998" style="stroke:rgb(255,255,255);stroke-width:2" stroke-linecap="round" />
</svg>