<?xml version="1.0" standalone="no"?>
<!DOCTYPE svg PUBLIC "-//W3C//DTD SVG 1.1//EN" "http://www.w3.org/Graphics/SVG/1.1/DTD/svg11.dtd">
<svg xmlns="http://www.w3.org/2000/svg">
<metadata>Generated by Fontastic.me</metadata>
<defs>
<font id="icons" horiz-adv-x="512">
<font-face font-family="icons" units-per-em="512" ascent="480" descent="-32"/>
<missing-glyph horiz-adv-x="512" />

<glyph glyph-name="circle-warning" unicode="&#97;" d="M235 128l42 0 0-43-42 0 0 43m0 171l42 0 0-128-42 0 0 128m21 106c-118 0-213-96-213-213 0-118 95-213 213-213 118 0 213 95 213 213 0 118-95 213-213 213m0-384c-94 0-171 77-171 171 0 94 77 171 171 171 94 0 171-77 171-171 0-94-77-171-171-171z"/>
<glyph glyph-name="triangle-warning" unicode="&#98;" d="M256 405l-235-405 470 0m-235 320l161-277-322 0m140 192l0-86 42 0 0 86m-42-128l0-43 42 0 0 43"/>
<glyph glyph-name="circle-down" unicode="&#99;" d="M256 85l-107 107 64 0 0 85 86 0 0-85 64 0-107-107m0 320c118 0 213-95 213-213 0-118-95-213-213-213-118 0-213 95-213 213 0 118 95 213 213 213m0-42c-94 0-171-77-171-171 0-94 77-171 171-171 94 0 171 77 171 171 0 94-77 171-171 171z"/>
<glyph glyph-name="circle" unicode="&#100;" d="M256 21c-94 0-171 77-171 171 0 94 77 171 171 171 94 0 171-77 171-171 0-94-77-171-171-171m0 384c-118 0-213-95-213-213 0-118 95-213 213-213 118 0 213 95 213 213 0 118-95 213-213 213z"/>
<glyph glyph-name="circle-check" unicode="&#101;" d="M256 405c118 0 213-95 213-213 0-118-95-213-213-213-118 0-213 95-213 213 0 118 95 213 213 213m0-42c-94 0-171-77-171-171 0-94 77-171 171-171 94 0 171 77 171 171 0 94-77 171-171 171m-21-267l-96 96 30 30 66-66 119 119 30-30z"/>
<glyph glyph-name="light" unicode="&#102;" d="M256 64l0 256c71 0 128-57 128-128 0-71-57-128-128-128m171 57l70 71-70 71 0 100-100 0-71 70-71-70-100 0 0-100-70-71 70-71 0-100 100 0 71-70 71 70 100 0z"/>
<glyph glyph-name="curly" unicode="&#103;" d="M171 384c-24 0-43-19-43-43l0-85c0-23-19-43-43-43l-21 0 0-42 21 0c24 0 43-20 43-43l0-85c0-24 19-43 43-43l42 0 0 43-42 0 0 106c0 24-20 43-43 43 23 0 43 19 43 43l0 106 42 0 0 43m128 0c24 0 43-19 43-43l0-85c0-23 19-43 43-43l21 0 0-42-21 0c-24 0-43-20-43-43l0-85c0-24-19-43-43-43l-42 0 0 43 42 0 0 106c0 24 20 43 43 43-23 0-43 19-43 43l0 106-42 0 0 43z"/>
<glyph glyph-name="square-bracket" unicode="&#104;" d="M320 363l0-43 64 0 0-256-64 0 0-43 107 0 0 342m-342 0l0-342 107 0 0 43-64 0 0 256 64 0 0 43z"/>
<glyph glyph-name="bracket" unicode="&#105;" d="M376 384c32-48 51-118 51-192 0-73-19-143-51-192l-35 22c27 41 43 103 43 170 0 67-16 130-43 170l35 22m-240 0l35-22c-27-40-43-103-43-170 0-67 16-130 43-170l-35-22c-32 48-51 118-51 192 0 74 19 144 51 192z"/>
<glyph glyph-name="comment-close" unicode="&#106;" d="M192-21c-12 0-21 9-21 21l0 64-86 0c-23 0-42 19-42 43l0 256c0 23 19 42 42 42l342 0c23 0 42-19 42-42l0-256c0-24-19-43-42-43l-130 0-79-79c-5-4-10-6-15-6l-11 0m21 128l0-66 66 66 148 0 0 256-342 0 0-256 128 0m-12 213l55-55 55 55 30-30-55-55 55-56-30-30-55 56-55-56-30 30 55 56-55 55z"/>
<glyph glyph-name="comment" unicode="&#107;" d="M192-21c-12 0-21 9-21 21l0 64-86 0c-23 0-42 19-42 43l0 256c0 23 19 42 42 42l342 0c23 0 42-19 42-42l0-256c0-24-19-43-42-43l-130 0-79-79c-5-4-10-6-15-6l-11 0m21 128l0-66 66 66 148 0 0 256-342 0 0-256z"/>
<glyph glyph-name="area" unicode="&#108;" d="M405 384l-85 0 0-43 85 0 0-85 43 0 0 85c0 24-19 43-43 43m0-341l-85 0 0-43 85 0c24 0 43 19 43 43l0 85-43 0m-298 0l-43 0 0-85c0-24 19-43 43-43l85 0 0 43-85 0m-43 298l0-85 43 0 0 85 85 0 0 43-85 0c-24 0-43-19-43-43z"/>
<glyph glyph-name="file" unicode="&#109;" d="M277 256l118 0-118 117 0-117m-149 149l171 0 128-128 0-256c0-23-20-42-43-42l-256 0c-24 0-43 19-43 42l0 342c0 23 19 42 43 42m107-42l-107 0 0-342 256 0 0 192-149 0z"/>
<glyph glyph-name="folder" unicode="&#110;" d="M427 64l-342 0 0 213 342 0m0 43l-171 0-43 43-128 0c-23 0-42-19-42-43l0-256c0-23 19-43 42-43l342 0c23 0 42 20 42 43l0 213c0 24-19 43-42 43z"/>
<glyph glyph-name="folders" unicode="&#111;" d="M469 363c24 0 43-20 43-43l0-213c0-24-19-43-43-43l-341 0c-23 0-43 19-43 43l0 256c0 23 20 42 43 42l128 0 43-42 170 0m-426-43l0-299 384 0 0-42-384 0c-24 0-43 19-43 42l0 299 43 0m85 0l0-213 341 0 0 213z"/>
<glyph glyph-name="project" unicode="&#112;" d="M405 0l-234 0 0 299 234 0m0 42l-234 0c-24 0-43-19-43-42l0-299c0-23 19-43 43-43l234 0c24 0 43 20 43 43l0 299c0 23-19 42-43 42m-64 86l-256 0c-23 0-42-20-42-43l0-299 42 0 0 299 256 0z"/>
<glyph glyph-name="step-into" unicode="&#113;" d="M256-21c-23 0-43 19-43 42 0 24 20 43 43 43 23 0 43-19 43-43 0-23-20-42-43-42m21 426l0-234 96 96 31-31-148-147-148 147 31 31 96-96 0 234z"/>
<glyph glyph-name="step-out" unicode="&#114;" d="M256-21c-23 0-43 19-43 42 0 24 20 43 43 43 23 0 43-19 43-43 0-23-20-42-43-42m21 128l-42 0 0 213-96-96-31 30 148 148 148-148-31-30-96 96z"/>
<glyph glyph-name="step-over" unicode="&#115;" d="M256 149c23 0 43-19 43-42 0-24-20-43-43-43-23 0-43 19-43 43 0 23 20 42 43 42m244 110l-33-147-147 34 81 51c-30 48-84 80-145 80-84 0-154-61-168-141l-42 7c17 101 105 177 210 177 76 0 144-40 181-101z"/>
<glyph glyph-name="circle-pause" unicode="&#116;" d="M277 104l43 0 0 170-43 0m-21-256c-94 0-171 77-171 171 0 94 77 171 171 171 94 0 171-77 171-171 0-94-77-171-171-171m0 384c-118 0-213-95-213-213 0-118 95-213 213-213 118 0 213 95 213 213 0 118-96 213-213 213m-64-298l43 0 0 170-43 0z"/>
<glyph glyph-name="circle-play" unicode="&#117;" d="M256 18c-94 0-171 77-171 171 0 94 77 171 171 171 94 0 171-77 171-171 0-94-77-171-171-171m0 384c-118 0-213-95-213-213 0-118 95-213 213-213 118 0 213 95 213 213 0 118-96 213-213 213m-43-309l128 96-128 96z"/>
<glyph glyph-name="sensor" unicode="&#118;" d="M132 114c25 0 46-21 46-46 0-25-21-47-46-47-25 0-47 22-47 47 0 25 21 46 47 46m-47 239c184 0 332-148 332-332l-60 0c0 150-122 272-272 272l0 60m0-120c117 0 212-95 212-212l-61 0c0 84-67 151-151 151z"/>
<glyph glyph-name="settings" unicode="&#119;" d="M256 117c-41 0-75 34-75 75 0 41 34 75 75 75 41 0 75-34 75-75 0-41-34-75-75-75m159 54c0 7 1 14 1 21 0 7-1 14-1 21l45 35c4 3 5 9 2 14l-43 74c-2 4-8 6-13 4l-53-21c-11 8-22 16-36 21l-8 56c-1 5-5 9-10 9l-86 0c-5 0-9-4-10-9l-8-56c-14-5-25-13-36-21l-53 21c-5 2-11 0-13-4l-43-74c-3-5-2-11 2-14l45-35c0-7-1-14-1-21 0-7 1-14 1-21l-45-35c-4-3-5-9-2-14l43-74c2-4 8-6 13-4l53 21c11-8 22-16 36-21l8-56c1-5 5-9 10-9l86 0c5 0 9 4 10 9l8 56c14 6 25 13 36 21l53-21c5-2 11 0 13 4l43 74c3 5 2 11-2 14z"/>
<glyph glyph-name="check" unicode="&#120;" d="M448 299l-256-256-117 117 30 30 87-87 226 226z"/>
<glyph glyph-name="close" unicode="&#121;" d="M405 311l-30 30-119-119-119 119-30-30 119-119-119-119 30-30 119 119 119-119 30 30-119 119z"/>
<glyph glyph-name="circle-info" unicode="&#122;" d="M235 256l42 0 0 43-42 0m21-278c-94 0-171 77-171 171 0 94 77 171 171 171 94 0 171-77 171-171 0-94-77-171-171-171m0 384c-118 0-213-95-213-213 0-118 95-213 213-213 118 0 213 95 213 213 0 118-95 213-213 213m-21-320l42 0 0 128-42 0z"/>
<glyph glyph-name="circle-minus" unicode="&#65;" d="M256 21c-94 0-171 77-171 171 0 94 77 171 171 171 94 0 171-77 171-171 0-94-77-171-171-171m0 384c-118 0-213-95-213-213 0-118 95-213 213-213 118 0 213 95 213 213 0 118-95 213-213 213m-107-234l214 0 0 42-214 0"/>
<glyph glyph-name="cirle-plus" unicode="&#66;" d="M256 21c-94 0-171 77-171 171 0 94 77 171 171 171 94 0 171-77 171-171 0-94-77-171-171-171m0 384c-118 0-213-95-213-213 0-118 95-213 213-213 118 0 213 95 213 213 0 118-95 213-213 213m21-106l-42 0 0-86-86 0 0-42 86 0 0-86 42 0 0 86 86 0 0 42-86 0z"/>
<glyph glyph-name="pen" unicode="&#67;" d="M442 362c8 8 8 22 0 30l-50 50c-8 8-22 8-30 0l-42-42 80-80m-21-21l-80 80-214-214 0-80 80 0z"/>
<glyph glyph-name="image-file" unicode="&#68;" d="M277 256l118 0-118 117 0-117m-149 149l171 0 128-128 0-256c0-23-20-42-43-42l-256 0c-24 0-43 19-43 42l0 342c0 23 19 42 43 42m0-384l256 0 0 171-85-85-43 42-128-128m43 235c-24 0-43-19-43-43 0-23 19-42 43-42 23 0 42 19 42 42 0 24-19 43-42 43z"/>
<glyph glyph-name="chevron-down" unicode="&#69;" d="M158 265l98-98 98 98 30-30-128-128-128 128z"/>
<glyph glyph-name="chevron-left" unicode="&#70;" d="M329 94l-98 98 98 98-30 30-128-128 128-128z"/>
<glyph glyph-name="chevron-right" unicode="&#71;" d="M183 94l98 98-98 98 30 30 128-128-128-128z"/>
<glyph glyph-name="chevron-up" unicode="&#72;" d="M158 119l98 98 98-98 30 30-128 128-128-128z"/>
</font>
</defs>
</svg>
