<svg viewBox="0 0 480 518" width="480" height="518" xmlns="http://www.w3.org/2000/svg"><style>
.register { font: 14px Monospace; fill: #9B59B6; }
.proc { font: italic 14px Monospace; fill: #0097E6; }
.define { font: bold 14px Monospace; fill: #C0392B; }
.record { font: italic 14px Monospace; fill: #4CD137; }
.keyword { font: bold 14px Monospace; fill: #E67E22; }
.operator { font: 14px Monospace; fill: #383838; }
.type { font: bold 14px Monospace; fill: #9B59B6; }
.meta { font: italic 14px Monospace; fill: #C0392B; }
.variable { font: 14px Monospace; fill: #0097E6;}
.number { font: 14px Monospace; fill: #1ABC9C; }
.string { font: italic 14px Monospace; fill: #5758BB; }
.comment { font: 14px Monospace; fill: #383838; }
</style><rect x="0" y="0" r2="2" ry="2" width="480" height="518" style="fill:#FAFBFC;stroke:#CAD5E0;"/><text x="16" y="22" class="number">0000</text>
<text x="49.6" y="22" class="operator">|</text>
<text x="58" y="22" class="number">0000</text>
<text x="100" y="22" class="keyword">set</text>
<text x="167.20000000000002" y="22" class="operator">[</text>
<text x="175.60000000000002" y="22" class="register">stack</text>
<text x="226.00000000000003" y="22" class="operator">+</text>
<text x="242.80000000000004" y="22" class="number">3</text>
<text x="251.20000000000005" y="22" class="operator">]</text>
<text x="259.6" y="22" class="operator">,</text>
<text x="301.5999999999999" y="22" class="number">719</text>
<text x="16" y="44" class="number">0001</text>
<text x="49.6" y="44" class="operator">|</text>
<text x="58" y="44" class="number">0000</text>
<text x="100" y="44" class="keyword">set</text>
<text x="167.20000000000002" y="44" class="register">ptr</text>
<text x="192.40000000000003" y="44" class="operator">,</text>
<text x="301.59999999999997" y="44" class="register">stack</text>
<text x="16" y="66" class="number">0002</text>
<text x="49.6" y="66" class="operator">|</text>
<text x="58" y="66" class="number">0000</text>
<text x="100" y="66" class="keyword">add</text>
<text x="167.20000000000002" y="66" class="register">ptr</text>
<text x="192.40000000000003" y="66" class="operator">,</text>
<text x="301.59999999999997" y="66" class="number">3</text>
<text x="16" y="88" class="number">0003</text>
<text x="49.6" y="88" class="operator">|</text>
<text x="58" y="88" class="number">0000</text>
<text x="100" y="88" class="keyword">set</text>
<text x="167.20000000000002" y="88" class="operator">[</text>
<text x="175.60000000000002" y="88" class="register">stack</text>
<text x="226.00000000000003" y="88" class="operator">+</text>
<text x="242.80000000000004" y="88" class="number">3</text>
<text x="251.20000000000005" y="88" class="operator">]</text>
<text x="259.6" y="88" class="operator">,</text>
<text x="301.5999999999999" y="88" class="operator">[</text>
<text x="309.9999999999999" y="88" class="register">ptr</text>
<text x="343.59999999999985" y="88" class="operator">+</text>
<text x="360.3999999999998" y="88" class="number">0</text>
<text x="368.7999999999998" y="88" class="operator">]</text>
<text x="16" y="110" class="number">0004</text>
<text x="49.6" y="110" class="operator">|</text>
<text x="58" y="110" class="number">0000</text>
<text x="100" y="110" class="keyword">set</text>
<text x="167.20000000000002" y="110" class="register">ptr</text>
<text x="192.40000000000003" y="110" class="operator">,</text>
<text x="301.59999999999997" y="110" class="number">1</text>
<text x="16" y="132" class="number">0005</text>
<text x="49.6" y="132" class="operator">|</text>
<text x="58" y="132" class="number">0000</text>
<text x="100" y="132" class="keyword">add</text>
<text x="167.20000000000002" y="132" class="register">ptr</text>
<text x="192.40000000000003" y="132" class="operator">,</text>
<text x="301.59999999999997" y="132" class="register">stack</text>
<text x="16" y="154" class="number">0006</text>
<text x="49.6" y="154" class="operator">|</text>
<text x="58" y="154" class="number">0000</text>
<text x="100" y="154" class="keyword">set</text>
<text x="167.20000000000002" y="154" class="operator">[</text>
<text x="175.60000000000002" y="154" class="register">ptr</text>
<text x="209.20000000000002" y="154" class="operator">+</text>
<text x="226.00000000000003" y="154" class="number">0</text>
<text x="234.40000000000003" y="154" class="operator">]</text>
<text x="242.80000000000004" y="154" class="operator">,</text>
<text x="301.5999999999999" y="154" class="operator">[</text>
<text x="309.9999999999999" y="154" class="register">stack</text>
<text x="360.39999999999986" y="154" class="operator">+</text>
<text x="377.1999999999998" y="154" class="number">3</text>
<text x="385.5999999999998" y="154" class="operator">]</text>
<text x="16" y="176" class="number">0007</text>
<text x="49.6" y="176" class="operator">|</text>
<text x="58" y="176" class="number">0001</text>
<text x="100" y="176" class="keyword">set</text>
<text x="167.20000000000002" y="176" class="register">ptr</text>
<text x="192.40000000000003" y="176" class="operator">,</text>
<text x="301.59999999999997" y="176" class="number">1</text>
<text x="16" y="198" class="number">0008</text>
<text x="49.6" y="198" class="operator">|</text>
<text x="58" y="198" class="number">0001</text>
<text x="100" y="198" class="keyword">add</text>
<text x="167.20000000000002" y="198" class="register">ptr</text>
<text x="192.40000000000003" y="198" class="operator">,</text>
<text x="301.59999999999997" y="198" class="register">stack</text>
<text x="16" y="220" class="number">0009</text>
<text x="49.6" y="220" class="operator">|</text>
<text x="58" y="220" class="number">0001</text>
<text x="100" y="220" class="keyword">set</text>
<text x="167.20000000000002" y="220" class="operator">[</text>
<text x="175.60000000000002" y="220" class="register">stack</text>
<text x="226.00000000000003" y="220" class="operator">+</text>
<text x="242.80000000000004" y="220" class="number">3</text>
<text x="251.20000000000005" y="220" class="operator">]</text>
<text x="259.6" y="220" class="operator">,</text>
<text x="301.5999999999999" y="220" class="register">ptr</text>
<text x="16" y="242" class="number">0010</text>
<text x="49.6" y="242" class="operator">|</text>
<text x="58" y="242" class="number">0001</text>
<text x="100" y="242" class="keyword">set</text>
<text x="167.20000000000002" y="242" class="register">ptr</text>
<text x="192.40000000000003" y="242" class="operator">,</text>
<text x="301.59999999999997" y="242" class="number">0</text>
<text x="16" y="264" class="number">0011</text>
<text x="49.6" y="264" class="operator">|</text>
<text x="58" y="264" class="number">0001</text>
<text x="100" y="264" class="keyword">add</text>
<text x="167.20000000000002" y="264" class="register">ptr</text>
<text x="192.40000000000003" y="264" class="operator">,</text>
<text x="301.59999999999997" y="264" class="register">stack</text>
<text x="16" y="286" class="number">0012</text>
<text x="49.6" y="286" class="operator">|</text>
<text x="58" y="286" class="number">0001</text>
<text x="100" y="286" class="keyword">set</text>
<text x="167.20000000000002" y="286" class="operator">[</text>
<text x="175.60000000000002" y="286" class="register">ptr</text>
<text x="209.20000000000002" y="286" class="operator">+</text>
<text x="226.00000000000003" y="286" class="number">0</text>
<text x="234.40000000000003" y="286" class="operator">]</text>
<text x="242.80000000000004" y="286" class="operator">,</text>
<text x="301.5999999999999" y="286" class="operator">[</text>
<text x="309.9999999999999" y="286" class="register">stack</text>
<text x="360.39999999999986" y="286" class="operator">+</text>
<text x="377.1999999999998" y="286" class="number">3</text>
<text x="385.5999999999998" y="286" class="operator">]</text>
<text x="16" y="308" class="number">0013</text>
<text x="49.6" y="308" class="operator">|</text>
<text x="58" y="308" class="number">0002</text>
<text x="100" y="308" class="keyword">set</text>
<text x="167.20000000000002" y="308" class="register">ptr</text>
<text x="192.40000000000003" y="308" class="operator">,</text>
<text x="301.59999999999997" y="308" class="number">0</text>
<text x="16" y="330" class="number">0014</text>
<text x="49.6" y="330" class="operator">|</text>
<text x="58" y="330" class="number">0002</text>
<text x="100" y="330" class="keyword">add</text>
<text x="167.20000000000002" y="330" class="register">ptr</text>
<text x="192.40000000000003" y="330" class="operator">,</text>
<text x="301.59999999999997" y="330" class="register">stack</text>
<text x="16" y="352" class="number">0015</text>
<text x="49.6" y="352" class="operator">|</text>
<text x="58" y="352" class="number">0002</text>
<text x="100" y="352" class="keyword">set</text>
<text x="167.20000000000002" y="352" class="register">ptr</text>
<text x="192.40000000000003" y="352" class="operator">,</text>
<text x="301.59999999999997" y="352" class="operator">[</text>
<text x="309.99999999999994" y="352" class="register">ptr</text>
<text x="343.5999999999999" y="352" class="operator">+</text>
<text x="360.39999999999986" y="352" class="number">0</text>
<text x="368.79999999999984" y="352" class="operator">]</text>
<text x="16" y="374" class="number">0016</text>
<text x="49.6" y="374" class="operator">|</text>
<text x="58" y="374" class="number">0002</text>
<text x="100" y="374" class="keyword">set</text>
<text x="167.20000000000002" y="374" class="operator">[</text>
<text x="175.60000000000002" y="374" class="register">stack</text>
<text x="226.00000000000003" y="374" class="operator">+</text>
<text x="242.80000000000004" y="374" class="number">3</text>
<text x="251.20000000000005" y="374" class="operator">]</text>
<text x="259.6" y="374" class="operator">,</text>
<text x="301.5999999999999" y="374" class="operator">[</text>
<text x="309.9999999999999" y="374" class="register">ptr</text>
<text x="343.59999999999985" y="374" class="operator">+</text>
<text x="360.3999999999998" y="374" class="number">0</text>
<text x="368.7999999999998" y="374" class="operator">]</text>
<text x="16" y="396" class="number">0017</text>
<text x="49.6" y="396" class="operator">|</text>
<text x="58" y="396" class="number">0002</text>
<text x="100" y="396" class="keyword">set</text>
<text x="167.20000000000002" y="396" class="register">ptr</text>
<text x="192.40000000000003" y="396" class="operator">,</text>
<text x="301.59999999999997" y="396" class="number">2</text>
<text x="16" y="418" class="number">0018</text>
<text x="49.6" y="418" class="operator">|</text>
<text x="58" y="418" class="number">0002</text>
<text x="100" y="418" class="keyword">add</text>
<text x="167.20000000000002" y="418" class="register">ptr</text>
<text x="192.40000000000003" y="418" class="operator">,</text>
<text x="301.59999999999997" y="418" class="register">stack</text>
<text x="16" y="440" class="number">0019</text>
<text x="49.6" y="440" class="operator">|</text>
<text x="58" y="440" class="number">0002</text>
<text x="100" y="440" class="keyword">set</text>
<text x="167.20000000000002" y="440" class="operator">[</text>
<text x="175.60000000000002" y="440" class="register">ptr</text>
<text x="209.20000000000002" y="440" class="operator">+</text>
<text x="226.00000000000003" y="440" class="number">0</text>
<text x="234.40000000000003" y="440" class="operator">]</text>
<text x="242.80000000000004" y="440" class="operator">,</text>
<text x="301.5999999999999" y="440" class="operator">[</text>
<text x="309.9999999999999" y="440" class="register">stack</text>
<text x="360.39999999999986" y="440" class="operator">+</text>
<text x="377.1999999999998" y="440" class="number">3</text>
<text x="385.5999999999998" y="440" class="operator">]</text>
<text x="16" y="462" class="number">0020</text>
<text x="49.6" y="462" class="operator">|</text>
<text x="58" y="462" class="number">0003</text>
<text x="100" y="462" class="keyword">set</text>
<text x="167.20000000000002" y="462" class="register">src</text>
<text x="192.40000000000003" y="462" class="operator">,</text>
<text x="301.59999999999997" y="462" class="number">2</text>
<text x="16" y="484" class="number">0021</text>
<text x="49.6" y="484" class="operator">|</text>
<text x="58" y="484" class="number">0003</text>
<text x="100" y="484" class="keyword">add</text>
<text x="167.20000000000002" y="484" class="register">src</text>
<text x="192.40000000000003" y="484" class="operator">,</text>
<text x="301.59999999999997" y="484" class="register">stack</text>
<text x="16" y="506" class="number">0022</text>
<text x="49.6" y="506" class="operator">|</text>
<text x="58" y="506" class="number">0004</text>
<text x="100" y="506" class="keyword">mod</text>
<text x="167.20000000000002" y="506" class="number">0</text>
<text x="175.60000000000002" y="506" class="operator">,</text>
</svg>