<svg version="1.1" baseProfile="full" width="768" height="768" xmlns="http://www.w3.org/2000/svg">
    <polygon points="384,762 433.33890065917956,758.7661575993003 464.7515420719865,685.3688578021893 503.397230897908,672.2504141435214 573,711.3576026305178 614.1118201652964,683.8875626300869 604.6173157302028,604.6173157302029 631.5262421708654,573.9335658507208 711.3576026305178,573 733.2264632892663,528.654337434004 685.3688578021893,464.7515420719865 693.3307967486288,424.72417197265617 762,384 758.7661575993003,334.66109934082044 685.3688578021893,303.2484579280135 672.2504141435215,264.6027691020921 711.3576026305178,195.00000000000009 683.8875626300869,153.8881798347036 604.6173157302029,163.38268426979718 573.9335658507209,136.47375782913466 573,56.64239736948218 528.654337434004,34.77353671073361 464.75154207198653,82.63114219781073 424.7241719726562,74.66920325137116 384.0000000000001,6 334.66109934082044,9.233842400699658 303.2484579280135,82.63114219781069 264.602769102092,95.74958585647849 195.00000000000009,56.64239736948214 153.8881798347036,84.1124373699131 163.38268426979732,163.38268426979704 136.47375782913468,194.06643414927908 56.64239736948227,194.99999999999983 34.773536710733566,239.34566256599618 82.63114219781069,303.2484579280135 74.66920325137116,343.2758280273439 6,383.9999999999999 9.233842400699615,433.33890065917933 82.63114219781065,464.75154207198636 95.74958585647849,503.39723089790783 56.642397369482225,573 84.11243736991288,614.1118201652962 163.38268426979715,604.6173157302028 194.06643414927908,631.5262421708653 194.99999999999983,711.3576026305177 239.34566256599612,733.2264632892665 303.2484579280133,685.3688578021893 343.2758280273439,693.3307967486288" style="stroke:rgba(0, 0, 0, 0.5);stroke-width:12" stroke-linejoin="round" fill="transparent" />
    <circle cx="384" cy="384" r="258" stroke="rgba(0, 0, 0, 0.5)" stroke-width="12" fill="transparent" />
</svg>
