<svg version="1.1" baseProfile="full" width="512" height="512" xmlns="http://www.w3.org/2000/svg">
    <polygon points="256,508 288.892600439453,505.8441050662002 309.8343613813243,456.9125718681262 335.59815393193867,448.1669427623476 382,474.23840175367854 409.4078801101976,455.92504175339127 403.0782104868019,403.07821048680194 421.01749478057695,382.6223772338139 474.23840175367854,382 488.81764219284423,352.43622495600266 456.9125718681262,309.8343613813243 462.22053116575256,283.1494479817708 508,256 505.8441050662002,223.10739956054698 456.9125718681262,202.1656386186757 448.1669427623477,176.4018460680614 474.23840175367854,130.00000000000006 455.92504175339127,102.5921198898024 403.07821048680194,108.92178951319812 382.62237723381395,90.9825052194231 382,37.761598246321455 352.43622495600266,23.18235780715574 309.83436138132436,55.08742813187382 283.14944798177083,49.77946883424744 256.00000000000006,4 223.10739956054695,6.155894933799772 202.16563861867567,55.08742813187379 176.40184606806133,63.833057237652326 130.00000000000006,37.76159824632143 102.5921198898024,56.07495824660873 108.9217895131982,108.92178951319804 90.98250521942313,129.37762276618605 37.76159824632151,129.9999999999999 23.18235780715571,159.56377504399745 55.08742813187379,202.1656386186757 49.77946883424744,228.85055201822925 4,255.99999999999994 6.155894933799743,288.8926004394529 55.087428131873764,309.83436138132424 63.833057237652326,335.59815393193855 37.76159824632148,382 56.07495824660859,409.4078801101974 108.92178951319809,403.0782104868018 129.37762276618605,421.01749478057684 129.9999999999999,474.23840175367843 159.56377504399742,488.8176421928443 202.16563861867553,456.9125718681262 228.85055201822925,462.22053116575256" style="stroke:rgba(0, 0, 0, 0.025);stroke-width:6" stroke-linejoin="round" fill="transparent" />
    <circle cx="256" cy="256" r="172" stroke="rgba(0, 0, 0, 0.025)" stroke-width="6" fill="transparent" />
</svg>
