<svg version="1.1" baseProfile="full" width="32" height="32" xmlns="http://www.w3.org/2000/svg">
    <polygon points="16,31.75 18.055787527465814,31.615256566637512 19.36464758633277,28.557035741757886 20.974884620746167,28.010433922646726 23.875,29.63990010960491 25.58799250688735,28.495315109586954 25.192388155425117,25.19238815542512 26.31359342378606,23.91389857711337 29.63990010960491,23.875 30.551102637052765,22.027264059750166 28.557035741757886,19.36464758633277 28.888783197859535,17.696840498860674 31.75,16 31.615256566637512,13.944212472534186 28.557035741757886,12.635352413667231 28.01043392264673,11.025115379253837 29.63990010960491,8.125000000000004 28.495315109586954,6.41200749311265 25.19238815542512,6.8076118445748826 23.913898577113372,5.686406576213944 23.875,2.360099890395091 22.027264059750166,1.4488973629472337 19.364647586332772,3.442964258242114 17.696840498860677,3.111216802140465 16.000000000000004,0.25 13.944212472534184,0.38474343336248573 12.63535241366723,3.442964258242112 11.025115379253833,3.9895660773532704 8.125000000000004,2.360099890395089 6.41200749311265,3.5046848904130457 6.807611844574888,6.807611844574877 5.686406576213946,8.086101422886628 2.3600998903950945,8.124999999999993 1.448897362947232,9.97273594024984 3.442964258242112,12.635352413667231 3.111216802140465,14.303159501139328 0.25,15.999999999999996 0.38474343336248396,18.055787527465807 3.4429642582421103,19.364647586332765 3.9895660773532704,20.97488462074616 2.3600998903950927,23.875 3.5046848904130368,25.58799250688734 6.807611844574881,25.192388155425114 8.086101422886628,26.313593423786052 8.124999999999993,29.639900109604902 9.972735940249839,30.551102637052768 12.63535241366722,28.557035741757886 14.303159501139328,28.888783197859535" style="stroke:rgba(0, 0, 0, 0.9);stroke-width:1" stroke-linejoin="round" fill="transparent" />
    <circle cx="16" cy="16" r="10.75" stroke="rgba(0, 0, 0, 0.9)" stroke-width="1" fill="transparent" />
</svg>
